<svg width="580" height="400" xmlns="http://www.w3.org/2000/svg">
 <!-- Created with SVG Editor - http://github.com/mzalive/SVG Editor/ -->
 <g>
  <title>Layer 1</title>
  <path id="svg_2" d="m177.948718,90c0.769231,40.769231 120,-19.487179 120,-19.487179c0,0 -80.25641,59.487179 -80.25641,59.487179c0,0 4.358974,26.410256 4.358974,26.410256" opacity="0.5" fill-opacity="null" stroke-opacity="null" stroke-width="1.5" stroke="#000" fill="none"/>
 </g>
 <g>
  <title>background</title>
  <rect opacity="0.85" stroke="null" fill="#fff" id="canvas_background" height="402" width="581" y="10.79487" x="-83.564106"/>
  <g display="none" overflow="visible" y="0" x="0" height="100%" width="100%" id="canvasGrid">
   <rect fill="url(#gridpattern)" stroke-width="0" y="0" x="0" height="100%" width="100%"/>
  </g>
  <path id="svg_3" d="m182.05128,98.97436l87.94872,0.76923l-0.25641,4.61538l-87.69231,-1.53846l0,-3.84615z" fill-opacity="null" stroke-opacity="null" stroke-width="1.5" stroke="#000" fill="none"/>
  <path id="svg_4" d="m270.25641,99.74359c0,0 0.25641,-7.4359 0.25641,-7.4359c0,0 -15.89744,-0.25641 -15.89744,-0.25641c0,0 15.64103,7.69231 15.64103,7.69231z" fill-opacity="null" stroke-opacity="null" stroke-width="null" stroke="null" fill="#fff"/>
  <path stroke="null" id="svg_5" d="m288.974359,204.358958l-0.25641,47.179494l0.25641,-47.179494z" fill-opacity="null" stroke-opacity="null" stroke-width="null" fill="#fff"/>
  <path stroke="null" d="m270.512817,93.333336c-0.641024,0.512817 -0.641024,0.769226 -0.641024,1.282051c0,0.769226 0,1.282051 0,1.53846c0,0.256409 0,0.512817 0,1.282051c0,0.256409 0,0.769234 0,1.282051c0,0.512817 0,1.025642 0,1.282051c0,0.512817 0,0.769234 0,1.025642c0,0.256409 0,0 0,-0.769234l-0.641024,-0.769226l0,-1.025642l0,-0.512825" id="svg_7" stroke-opacity="null" stroke-width="null" fill="none"/>
  <path d="m269.743591,84.615387c0.512817,0 0.685669,0.165924 1.025635,1.025642c0.573547,1.450394 0.682983,3.149658 1.282043,5.128204c0.83075,2.743752 5.45047,7.397301 7.179504,8.717949c4.928558,3.764427 9.495941,4.313583 13.589752,5.128204c4.882843,0.971634 9.1651,2.433411 12.564087,2.820511c1.019043,0.116058 1.025177,0.539604 0.256409,0.512817c-11.045746,-0.38485 -17.880737,-1.288795 -38.205139,-10.769226c-13.928833,-6.497185 -21.752838,-11.025978 -21.794861,-13.589745c-0.051285,-3.129471 7.948715,-5.384613 24.871796,-7.948715l26.410248,-0.256416l28.717957,5.128204l25.128204,4.871796" id="svg_8" fill-opacity="null" stroke-opacity="null" stroke-width="null" stroke="null" fill="none"/>
  <path d="m288.461548,81.53846c-0.512817,0 -0.724854,-0.037766 -0.512817,0.256409c0.335236,0.465134 1.594391,2.269035 2.820496,4.10257c1.344666,2.010788 2.514984,3.421906 3.846161,4.102562c1.738647,0.889 2.887695,1.68531 4.615387,2.820511c1.071442,0.70401 1.380157,1.045158 1.282043,1.282051c-0.138763,0.335014 -0.769226,1.025642 -1.538452,1.538467l-0.769226,0.512817l-0.769257,0.769234" id="svg_9" fill-opacity="null" stroke-opacity="null" stroke-width="null" stroke="null" fill="none"/>
  <path d="m326.666656,77.948715c4.871796,-0.512817 5.716125,-0.694145 5.897461,-0.512817c0.543945,0.54393 -0.575714,1.943222 -1.794891,3.333336c-1.797211,2.04921 -7.626556,6.26413 -13.589752,9.743584c-8.625824,5.033066 -20.156403,9.814537 -29.743591,12.564102c-10.162384,2.914536 -15.948334,4.365433 -16.666656,3.589745c-0.550934,-0.594925 3.447662,-4.590782 12.0513,-7.435898c15.898621,-5.257469 36.309967,-6.662537 65.641022,3.846153c19.541748,7.001396 34.331573,17.613716 40,29.487183c4.296906,9.000595 6.021881,20.525085 -13.333344,42.051285c-12.316223,13.697693 -30.370331,23.572067 -47.435883,27.948715c-17.282867,4.432388 -23.846161,1.794876 -26.923096,0.256409l-2.307678,-3.589737l-1.794891,-4.615387" id="svg_10" fill-opacity="null" stroke-opacity="null" stroke-width="null" stroke="null" fill="none"/>
  <path d="m263.333344,135.89743c0,-0.256409 0.256409,-0.512817 1.025635,-0.512817c3.076904,0 14.586365,0.385147 20,1.538467c21.690857,4.621002 40.255066,5.512817 58.461548,5.641022c18.973877,0.133606 33.84613,-1.025635 43.589722,-2.307693l5.641022,-1.025635l1.794891,-0.512833l0.512817,-0.256409" id="svg_11" fill-opacity="null" stroke-opacity="null" stroke-width="null" stroke="null" fill="none"/>
  <path d="m331.538452,115.384613c-4.615387,0.256416 -20.30127,1.819138 -32.820496,4.358978c-18.534332,3.760162 -38.193237,8.380569 -54.358978,15.384613c-11.470795,4.969894 -16.022858,8.495163 -17.692307,11.794876c-1.354889,2.677963 -1.794876,4.871796 -1.794876,5.89743c0,0.512817 0,1.282059 0,1.538467l0,0.256409" id="svg_12" fill-opacity="null" stroke-opacity="null" stroke-width="null" stroke="null" fill="none"/>
  <path d="m233.333328,155.128204c3.589752,0.769226 12.014557,2.543945 22.820511,4.10257c10.482239,1.511932 20,2.051285 27.179504,2.051285c6.923065,0 14.615387,0.256409 21.538452,0.256409c8.974365,0 13.846161,0 16.666656,0l1.282074,0l0.256409,0" id="svg_13" fill-opacity="null" stroke-opacity="null" stroke-width="null" stroke="null" fill="none"/>
  <path d="m270.256409,93.589745c-0.256409,0 -0.256409,0.512817 -0.256409,1.025642c0,0.512817 0.256409,1.282051 0.256409,1.794868c0,0.512825 0.158295,1.045158 0.256409,1.282051c0.138763,0.335014 0.256409,0.769234 0.256409,1.282051l0,0.256409l0,0.256416l0,0.256409" id="svg_14" stroke-opacity="null" stroke-width="null" stroke="null" fill="#000000"/>
  <path stroke="null" d="m272.564117,94.358971c-0.576985,0 -0.977023,0.117645 -1.730819,0.256416c-0.532972,0.098122 -1.153833,0 -1.73075,0.256409l-0.576917,0l-0.576917,0" id="svg_15" stroke-opacity="null" stroke-width="null" fill="none"/>
  <path d="m245.897447,51.794873c0.256409,0 0.525574,0.232361 1.025635,0.512817c4.219635,2.366516 9.508209,5.607338 16.923065,10.256409c7.714355,4.836845 14.982452,10.099449 18.717957,16.410263c3.740082,6.318527 5.150421,15.431786 2.564087,23.589745c-3.118896,9.837738 -11.668274,21.382965 -30.512817,31.538452c-12.449402,6.709091 -22.924927,9.642105 -29.230759,8.461548c-6.320908,-1.18338 -12.446381,-8.199722 -15.384613,-18.461548c-2.066223,-7.216324 1.449097,-17.730164 11.282043,-26.923065c17.943985,-16.775978 27.989365,-21.475502 54.615402,-24.615395c19.609375,-2.312447 39.639282,1.038086 52.820496,5.384621c6.973145,2.299416 9.431091,5.09729 8.461548,6.923073c-2.556702,4.814629 -14.615387,9.230766 -32.0513,13.589745l-48.974335,5.384613l-12.0513,-0.256409l-15.384613,-0.769226" id="svg_16" fill-opacity="null" stroke-opacity="null" stroke-width="null" stroke="null" fill="none"/>
  <path d="m254.358978,142.820511c1.538452,0.769226 4.29245,2.239853 7.692291,3.333328c5.802124,1.866119 25.447144,5.852737 45.897461,10.256424c23.409943,5.041 47.644379,10.16069 65.641022,16.666656c10.388489,3.755539 12.864807,4.768311 12.820496,5.128204c-0.182678,1.483917 -4.114136,2.012405 -5.89743,2.564102c-1.549225,0.479279 -2.454132,1.199875 -3.589752,1.794876c-1.436462,0.752625 -3.565796,1.537964 -7.692291,1.794876c-6.653778,0.414246 -18.719818,0.094711 -34.10257,-0.256409c-17.695129,-0.4039 -36.410248,-0.512833 -65.641022,-0.769241l-11.282043,-0.512817l-11.282059,-0.512817" id="svg_17" fill-opacity="null" stroke-opacity="null" stroke-width="null" stroke="null" fill="none"/>
  <polyline stroke-linecap="round" id="svg_18" points="379.2307692307693,169.23076923076925 379.2307692307693,169.23076923076925 379.2307692307693,168.71794871794873 " stroke-opacity="null" stroke-width="null" stroke="null" fill="none"/>
  <path id="svg_19" d="m271.282051,90c-1.282051,13.846154 -12.820513,0.25641 -13.076923,0.25641c0.25641,0 25.641026,0.512821 25.641026,0.512821c0,0 -12.051282,5.641026 -12.051282,5.641026c0,0 -4.615385,-1.282051 -4.615385,-1.282051c0,0 3.333333,4.615385 3.333333,4.615385c0,0 0.512821,-7.179487 0.512821,-7.179487" stroke-opacity="null" stroke-width="null" stroke="null" fill="#000000"/>
  <path id="svg_20" d="m270,104.615385c1.282051,11.794872 4.871795,14.358974 4.871795,14.358974c0,0 8.717949,-4.615385 8.717949,-4.615385c0,0 -14.871795,-21.538462 -13.589744,-9.74359z" stroke-opacity="null" stroke-width="null" stroke="null" fill="#000000"/>
 </g>
</svg>